# xmcd CD database file
#
# Track frame offsets:
#	150
#	69700
#	108570
#	157357
#	225422
#	284742
#
# Disc length: 4038 seconds
#
# Revision: 0
# Processed by: cddbd v1.5.2PL0 Copyright (c) Steve Scherf et al.
# Submitted via: CDex 1.51
#
DISCID=5a0fc406
DTITLE=Andrea Centazzo - with Mitteleuropa Orchestra Live
DYEAR=1977
DGENRE=Jazz
TTITLE0=chirimia
TTITLE1=first environment (for orchestra)
TTITLE2=musica schema #1
TTITLE3=third environment (for orchestra)
TTITLE4=cjant: VI movement
TTITLE5=chant: v movement
EXTD=YEAR: 1977
EXTT0=
EXTT1=
EXTT2=
EXTT3=
EXTT4=
EXTT5=
PLAYORDER=
